<svg width="58" height="40" viewBox="0 0 58 40" fill="none" xmlns="http://www.w3.org/2000/svg">
<path d="M24.4543 29.8213C29.9957 28.5405 35.1528 27.4192 32.6564 22.7018C25.0512 8.34441 30.6385 0.666664 38.6691 0.666664C46.8568 0.666664 52.3063 8.63925 44.6818 22.7042C42.108 27.4506 47.4585 28.5695 52.8815 29.8237C57.6786 30.9306 58 33.2747 58 37.3323L57.9928 39.3333H54.781C54.781 34.2849 54.9816 33.6131 51.8182 32.8832C47.2241 31.8247 42.8886 30.8242 41.3032 27.3152C40.7257 26.0344 40.3487 23.9271 41.8494 21.1697C45.1651 15.0507 46.0037 9.7485 44.1428 6.62858C41.963 2.9625 35.4017 2.98183 33.2388 6.57541C31.3828 9.65183 32.2093 14.983 35.5008 21.1962C36.9678 23.9657 36.5811 26.0682 35.9987 27.3418C34.4037 30.8339 30.0247 31.8441 25.3895 32.9123C22.3638 33.6131 22.5572 34.3332 22.5572 39.3333H19.3406C19.3406 34.0263 18.9153 31.1022 24.4543 29.8213ZM0.00483333 39.3333H3.21658C3.21658 34.6982 2.76708 35.9862 7.62458 34.5653C10.0751 33.8523 12.2404 32.818 13.2216 30.6696C13.7339 29.5507 14.0795 27.7212 12.8301 25.3602C10.5294 21.015 9.88417 17.2063 11.1094 15.1739C12.4313 12.9772 16.5953 12.9796 17.922 15.2102C20.1816 18.9971 16.0056 24.8333 15.457 27.25H18.8307C19.894 24.8333 21.7452 21.914 21.7452 17.825C21.7452 12.9675 18.5745 10.3333 14.5 10.3333C8.47525 10.3333 4.28475 16.0922 9.9905 26.8609C11.861 30.3989 7.99433 31.2399 3.84008 32.1993C0.23925 33.0331 0 34.79 0 37.8398L0.00483333 39.3333Z" fill="white"/>
</svg>
