<?xml version="1.0" standalone="no"?>
<!DOCTYPE svg PUBLIC "-//W3C//DTD SVG 20010904//EN"
 "http://www.w3.org/TR/2001/REC-SVG-20010904/DTD/svg10.dtd">
<svg version="1.0" xmlns="http://www.w3.org/2000/svg"
 width="200.000000pt" height="60.000000pt" viewBox="0 0 200.000000 60.000000"
 preserveAspectRatio="xMidYMid meet">

<g transform="translate(0.000000,60.000000) scale(0.100000,-0.100000)"
fill="#000000" stroke="none">
<path d="M385 583 c-94 -34 -142 -149 -116 -280 7 -38 16 -95 20 -128 l6 -59
17 26 18 27 55 -20 c62 -22 166 -25 245 -8 100 21 157 118 148 249 -7 92 -37
146 -101 179 -65 33 -217 40 -292 14z m24 -195 c11 -30 3 -48 -20 -48 -15 0
-19 7 -19 35 0 41 25 49 39 13z m126 -14 c0 -19 -6 -30 -17 -32 -21 -4 -34 34
-17 54 18 22 34 11 34 -22z m133 -8 c-2 -13 -10 -21 -23 -21 -23 0 -32 30 -14
51 16 19 41 -1 37 -30z"/>
<path d="M84 355 c-77 -39 -104 -179 -55 -279 31 -64 77 -85 135 -65 22 8 48
26 60 42 l20 27 -27 27 c-19 20 -36 27 -61 26 -44 -1 -58 15 -54 64 3 37 4 38
45 39 31 0 50 7 68 24 31 29 31 33 -2 70 -34 38 -85 47 -129 25z"/>
<path d="M832 358 c-19 -19 -17 -348 2 -348 7 0 28 -3 45 -6 l31 -6 0 101 c0
57 5 112 11 123 11 21 12 21 25 3 10 -13 14 -50 14 -122 l0 -103 45 0 45 0 0
109 c0 82 4 111 14 120 25 21 36 -20 36 -130 l0 -102 31 7 c17 3 38 6 47 6 22
0 13 287 -12 324 -22 34 -62 44 -98 23 -24 -14 -31 -14 -55 -2 -35 19 -54 19
-78 1 -16 -11 -21 -11 -33 0 -17 17 -54 18 -70 2z"/>
<path d="M1230 224 c0 -130 3 -153 20 -181 23 -39 61 -51 93 -30 19 12 24 12
35 1 7 -8 31 -14 52 -14 l40 0 0 185 0 185 -50 0 -50 0 0 -99 c0 -107 -5 -131
-26 -131 -14 0 -20 27 -29 139 -3 41 -7 76 -8 77 -1 1 -19 5 -39 9 l-38 7 0
-148z"/>
<path d="M1500 185 l0 -185 45 0 45 0 0 103 c0 76 4 108 15 123 15 19 15 19
30 0 11 -15 15 -47 15 -123 l0 -103 45 0 45 0 0 128 c-1 146 -10 200 -41 225
-26 21 -72 22 -89 2 -11 -13 -14 -13 -27 0 -8 8 -30 15 -49 15 l-34 0 0 -185z"/>
<path d="M1841 353 c-48 -24 -85 -106 -79 -177 6 -77 43 -145 87 -163 31 -13
41 -14 75 -2 22 8 48 26 60 42 l20 27 -27 27 c-19 20 -36 27 -61 26 -44 -1
-58 15 -54 64 3 37 4 38 45 39 31 0 50 7 68 24 31 29 31 33 -2 70 -35 39 -85
47 -132 23z"/>
</g>
</svg>
