<svg width="32" height="32" viewBox="0 0 32 32" fill="none" xmlns="http://www.w3.org/2000/svg">
<path d="M16.0031 0.174561C24.74 0.174561 31.8333 7.26789 31.8333 16.0031C31.8333 24.74 24.74 31.8333 16.0031 31.8333C7.26789 31.8333 0.174561 24.74 0.174561 16.0031C0.174561 7.26789 7.26789 0.174561 16.0031 0.174561ZM16.0031 2.54956C8.57731 2.54956 2.54956 8.57731 2.54956 16.0031C2.54956 23.429 8.57731 29.4583 16.0031 29.4583C23.429 29.4583 29.4583 23.429 29.4583 16.0031C29.4583 8.57731 23.429 2.54956 16.0031 2.54956ZM16.0031 12.8412C15.3476 12.8412 14.8156 13.3732 14.8156 14.0287V22.7371C14.8156 23.3926 15.3476 23.9246 16.0031 23.9246C16.6586 23.9246 17.1906 23.3926 17.1906 22.7371V14.0287C17.1906 13.3732 16.6586 12.8412 16.0031 12.8412ZM16 8.09123C16.874 8.09123 17.5833 8.80056 17.5833 9.67456C17.5833 10.5486 16.874 11.2579 16 11.2579C15.126 11.2579 14.4166 10.5486 14.4166 9.67456C14.4166 8.80056 15.126 8.09123 16 8.09123Z" fill="white"/>
</svg>
