<svg width="50" height="50" viewBox="0 0 50 50" fill="none" xmlns="http://www.w3.org/2000/svg">
<path d="M17.1185 45.1272L48.9827 13.2602C49.453 12.79 49.75 12.097 49.75 11.3792C49.75 10.7495 49.5217 10.0977 48.98 9.55874L40.4137 1.02274C39.905 0.513986 39.234 0.260986 38.5658 0.260986C37.8975 0.260986 37.2292 0.513986 36.7178 1.02274L4.80125 32.8292C3.2365 37.6775 0.525 46.0925 0.32975 46.802C0.27475 47.0082 0.25 47.2145 0.25 47.418C0.25 48.6857 1.20975 49.75 2.35375 49.75C3.759 49.75 5.079 49.2302 17.1185 45.1272ZM8.126 35.9367L14.0028 41.8135L5.29075 44.69L8.126 35.9367ZM10.7522 32.7302L38.5658 5.01299L44.987 11.4122L17.2147 39.19L10.7522 32.7302Z" fill="white"/>
</svg>
